<?xml version="1.0" encoding="UTF-8"?>
<svg id="Layer_1" data-name="Layer 1" xmlns="http://www.w3.org/2000/svg" viewBox="0 0 246.57 254.76">
  <defs>
    <style>
      .cls-1 {
        stroke-width: 4px;
      }

      .cls-1, .cls-2, .cls-3, .cls-4, .cls-5, .cls-6 {
        stroke: #571b57;
        stroke-miterlimit: 10;
      }

      .cls-1, .cls-4, .cls-6 {
        fill: none;
      }

      .cls-2 {
        font-size: 7.55px;
        stroke-width: .5px;
      }

      .cls-2, .cls-7, .cls-8, .cls-5, .cls-9 {
        fill: #571b57;
      }

      .cls-3 {
        fill: #fff;
      }

      .cls-7 {
        font-size: 15.54px;
      }

      .cls-8 {
        font-size: 6.27px;
      }

      .cls-10 {
        letter-spacing: -.02em;
      }

      .cls-11 {
        fill: #662d91;
        font-family: CinzelDecorative-Bold, 'Cinzel Decorative';
        font-size: 14.24px;
        font-weight: 700;
      }

      .cls-12 {
        letter-spacing: -.04em;
      }

      .cls-13 {
        letter-spacing: 0em;
      }

      .cls-6 {
        stroke-width: 2px;
      }

      .cls-14 {
        letter-spacing: .11em;
      }

      .cls-15 {
        letter-spacing: .11em;
      }

      .cls-16 {
        letter-spacing: .11em;
      }

      .cls-17 {
        letter-spacing: .12em;
      }

      .cls-18 {
        letter-spacing: .02em;
      }

      .cls-19 {
        letter-spacing: 0em;
      }
    </style>
  </defs>
  <g>
    <circle class="cls-6" cx="123.29" cy="123.29" r="122.29"/>
    <text class="cls-7" transform="translate(22.8 154.55) rotate(-104.28)"><tspan x="0" y="0">E</tspan></text>
    <text class="cls-7" transform="translate(19.6 141.33) rotate(-95.37)"><tspan x="0" y="0">M</tspan></text>
    <text class="cls-7" transform="translate(18.37 122.48) rotate(-86.49)"><tspan x="0" y="0">P</tspan></text>
    <text class="cls-7" transform="translate(19.49 108.39) rotate(-78.12)"><tspan x="0" y="0">O</tspan></text>
    <text class="cls-7" transform="translate(22.9 92.97) rotate(-68.33)"><tspan x="0" y="0">W</tspan></text>
    <text class="cls-7" transform="translate(31.09 74.17) rotate(-58.98)"><tspan x="0" y="0">E</tspan></text>
    <text class="cls-7" transform="translate(38.31 62.61) rotate(-50.77)"><tspan x="0" y="0">R</tspan></text>
    <text class="cls-7" transform="translate(49.18 50.12) rotate(-43.98)"><tspan x="0" y="0"> </tspan></text>
    <text class="cls-7" transform="translate(55.46 44.34) rotate(-39.34)"><tspan x="0" y="0"> </tspan></text>
    <text class="cls-7" transform="translate(62.15 39.1) rotate(-34.71)"><tspan x="0" y="0"> </tspan></text>
    <text class="cls-7" transform="translate(69.27 34.41) rotate(-30.05)"><tspan x="0" y="0"> </tspan></text>
    <text class="cls-7" transform="translate(76.75 30.31) rotate(-25.38)"><tspan x="0" y="0"> </tspan></text>
    <text class="cls-7" transform="translate(84.54 26.84) rotate(-20.68)"><tspan x="0" y="0"> </tspan></text>
    <text class="cls-7" transform="translate(92.48 23.96) rotate(-14.58)"><tspan x="0" y="0">E</tspan></text>
    <text class="cls-7" transform="translate(105.74 20.76) rotate(-6.36)"><tspan x="0" y="0">X</tspan></text>
    <text class="cls-7" transform="translate(121.36 19.34) rotate(1.93)"><tspan x="0" y="0">C</tspan></text>
    <text class="cls-7" transform="translate(137.05 20.26) rotate(9.91)"><tspan x="0" y="0">E</tspan></text>
    <text class="cls-7" transform="translate(150.45 22.91) rotate(17.48)"><tspan x="0" y="0">L</tspan></text>
    <text class="cls-7" transform="translate(163.57 27.46) rotate(23.63)"><tspan x="0" y="0"> </tspan></text>
    <text class="cls-7" transform="translate(171.28 31.05) rotate(28.3)"><tspan x="0" y="0"> </tspan></text>
    <text class="cls-7" transform="translate(178.7 35.27) rotate(32.97)"><tspan x="0" y="0"> </tspan></text>
    <text class="cls-7" transform="translate(185.73 40.06) rotate(37.61)"><tspan x="0" y="0"> </tspan></text>
    <text class="cls-7" transform="translate(192.37 45.42) rotate(42.25)"><tspan x="0" y="0"> </tspan></text>
    <text class="cls-7" transform="translate(198.55 51.3) rotate(46.88)"><tspan x="0" y="0"> </tspan></text>
    <text class="cls-7" transform="translate(204.25 57.56) rotate(52.91)"><tspan x="0" y="0">E</tspan></text>
    <text class="cls-7" transform="translate(212.29 68.56) rotate(61.15)"><tspan x="0" y="0">D</tspan></text>
    <text class="cls-7" transform="translate(219.95 83.24) rotate(70.15)"><tspan x="0" y="0">U</tspan></text>
    <text class="cls-7" transform="translate(225.11 98.66) rotate(78.95)"><tspan x="0" y="0">C</tspan></text>
    <text class="cls-7" transform="translate(227.76 114) rotate(87.48)"><tspan x="0" y="0">A</tspan></text>
    <text class="cls-7" transform="translate(228.17 128.43) rotate(95.15)"><tspan x="0" y="0">T</tspan></text>
    <text class="cls-7" transform="translate(226.39 143.84) rotate(103.13)"><tspan x="0" y="0">E</tspan></text>
    <g>
      <polygon class="cls-9" points="25.75 165.65 26.69 170.56 31.71 171.3 27.26 173.65 28.18 178.62 24.47 175.13 19.97 177.42 22.18 172.85 18.46 169.39 23.54 170.14 25.75 165.65"/>
      <polygon class="cls-9" points="35.18 182.74 36.21 187.07 40.58 187.48 36.84 189.8 37.85 194.18 34.49 191.25 30.71 193.51 32.41 189.33 29.05 186.43 33.47 186.85 35.18 182.74"/>
      <polygon class="cls-9" points="49.4 198.92 50.3 202.69 54.1 203.05 50.85 205.06 51.73 208.88 48.8 206.33 45.5 208.3 46.99 204.66 44.06 202.13 47.91 202.5 49.4 198.92"/>
    </g>
    <g>
      <polygon class="cls-9" points="223.49 165.32 222.55 170.23 217.53 170.96 221.98 173.32 221.06 178.29 224.77 174.8 229.27 177.09 227.06 172.52 230.78 169.06 225.7 169.81 223.49 165.32"/>
      <polygon class="cls-9" points="214.06 182.41 213.03 186.74 208.66 187.15 212.4 189.46 211.39 193.85 214.75 190.92 218.53 193.18 216.83 189 220.19 186.09 215.77 186.52 214.06 182.41"/>
      <polygon class="cls-9" points="199.84 198.58 198.94 202.36 195.14 202.72 198.39 204.73 197.51 208.55 200.44 206 203.74 207.96 202.25 204.33 205.18 201.79 201.33 202.17 199.84 198.58"/>
    </g>
  </g>
  <text/>
  <circle class="cls-6" cx="123.29" cy="123.29" r="98.51"/>
  <path class="cls-3" d="M209.45,241.81c-6.72-.65-13.61-1.24-20.67-1.76-9.97-.73-20.28-1.3-30.9-1.69-11.83-.43-23.27-.6-34.29-.56-13.47-.02-27.68.28-42.55,1-6.54.32-33.94,2.31-41,3v-26c25.18-2.99,54.3-5.09,86.64-5,30.76.08,58.56,2.13,82.77,5v26Z"/>
  <polygon class="cls-3" points="240.42 230.26 229.2 241.09 240.42 254.76 194.65 249.98 194.65 244.65 213.99 246.37 213.99 226.95 240.42 230.26"/>
  <polygon class="cls-3" points="54.48 244.93 35.92 246.55 35.92 227 8.93 230.56 20.1 241.22 8.93 254.7 54.48 250.11 54.48 244.93"/>
  <text class="cls-2" transform="translate(55.93 229.98) rotate(-6.12)"><tspan x="0" y="0">N</tspan></text>
  <text class="cls-2" transform="translate(63.93 229.14) rotate(-5.36)"><tspan x="0" y="0">U</tspan></text>
  <text class="cls-2" transform="translate(71.48 228.44) rotate(-4.62)"><tspan x="0" y="0">R</tspan></text>
  <text class="cls-2" transform="translate(78.32 227.9) rotate(-3.97)"><tspan x="0" y="0">T</tspan></text>
  <text class="cls-2" transform="translate(85.46 227.41) rotate(-3.24)"><tspan x="0" y="0">U</tspan></text>
  <text class="cls-2" transform="translate(93.04 227) rotate(-2.5)"><tspan x="0" y="0">R</tspan></text>
  <text class="cls-2" transform="translate(100.63 226.68) rotate(-1.91)"><tspan x="0" y="0">I</tspan></text>
  <text class="cls-2" transform="translate(105.27 226.53) rotate(-1.29)"><tspan x="0" y="0">N</tspan></text>
  <text class="cls-2" transform="translate(113.33 226.37) rotate(-.53)"><tspan x="0" y="0">G</tspan></text>
  <text class="cls-2" transform="translate(120.77 226.31) rotate(.01)"><tspan x="0" y="0"> </tspan></text>
  <text class="cls-2" transform="translate(124.44 226.32) rotate(.5)"><tspan x="0" y="0">E</tspan></text>
  <text class="cls-2" transform="translate(130.74 226.38) rotate(1.18)"><tspan x="0" y="0">X</tspan></text>
  <text class="cls-2" transform="translate(137.97 226.54) rotate(1.87)"><tspan x="0" y="0">C</tspan></text>
  <text class="cls-2" transform="translate(145.31 226.8) rotate(2.54)"><tspan x="0" y="0">E</tspan></text>
  <text class="cls-2" transform="translate(151.59 227.08) rotate(3.16)"><tspan x="0" y="0">L</tspan></text>
  <text class="cls-2" transform="translate(157.96 227.45) rotate(3.78)"><tspan x="0" y="0">L</tspan></text>
  <text class="cls-2" transform="translate(164.34 227.88) rotate(4.4)"><tspan x="0" y="0">E</tspan></text>
  <text class="cls-2" transform="translate(170.61 228.37) rotate(5.1)"><tspan x="0" y="0">N</tspan></text>
  <text class="cls-2" transform="translate(178.65 229.1) rotate(5.85)"><tspan x="0" y="0">C</tspan></text>
  <text class="cls-2" transform="translate(185.92 229.86) rotate(6.52)"><tspan x="0" y="0">E</tspan></text>
  <path class="cls-1" d="M125.27,207.26s-.04-9.42,27.64-20.62c38.32-15.52,43.07-25.16,44.21-35.23,1.14-10.07-6.82-19.36-8.07-33.52-1.25-14.16,9.36-34.71,9.36-34.71l-19.14-30.86c-37.2,8.36-54.69-4.99-54.69-4.99,0,0-17.37,13.49-54.64,5.45l-18.88,31.02s10.78,20.46,9.65,34.63c-1.13,14.17-9.01,23.52-7.78,33.58,1.23,10.06,6.06,19.66,44.51,34.86,27.77,10.97,27.82,20.39,27.82,20.39Z"/>
  <path class="cls-4" d="M125.6,145.14s-1.31-5.71-10.7-2.73c-9.39,2.99-7.82,2.46-7.82,2.46l-.1.73h18.62v-.47Z"/>
  <text class="cls-11" transform="translate(86.22 78.3) rotate(-.08) scale(1.19 1) skewX(-.13)"><tspan class="cls-10" x="0" y="0">M</tspan><tspan class="cls-12" x="13.49" y="0">Y</tspan><tspan class="cls-19" x="22.41" y="0">S</tspan><tspan class="cls-13" x="31.36" y="0">O</tspan><tspan class="cls-19" x="44.5" y="0">RE</tspan></text>
  <text class="cls-8" transform="translate(71.14 95.56) rotate(-.08) scale(1.14 1) skewX(-.13)"><tspan class="cls-16" x="0" y="0">INTER</tspan><tspan class="cls-14" x="23.05" y="0">N</tspan><tspan class="cls-18" x="28.72" y="0">A</tspan><tspan class="cls-16" x="33.22" y="0">TIO</tspan><tspan class="cls-14" x="46.52" y="0">NA</tspan><tspan class="cls-15" x="57.26" y="0">L SCH</tspan><tspan class="cls-17" x="78.22" y="0">O</tspan><tspan class="cls-15" x="83.74" y="0">OL</tspan></text>
  <line class="cls-5" x1="80.44" y1="84.77" x2="167.68" y2="84.8"/>
  <path class="cls-4" d="M124.79,145.14s1.31-5.71,10.7-2.73c9.39,2.99,7.82,2.46,7.82,2.46l.1.73h-18.62v-.47Z"/>
  <path class="cls-9" d="M142.1,145.68c1.19-.1,2.26-.98,2.33-2.25.03-.49-.21-.93-.38-1.4l-2.75-7.58-1.34-3.7c-.17-.46-.29-1.03-.53-1.46-.43-.76-1.63-1.19-2.41-1.51-1.05-.43-2.16-.68-3.3-.7-1.48-.02-2.96.38-4.23,1.12-.29.17-.74.39-.95.66-.33.41.09-.44.27-.04,0-.02-.25,0-.28,0-1.02-.23-2.35,0-3.39,0h-4.3c-.41,0-.9-.07-1.3,0-.55.1.23.33.02.07-.59-.75-1.96-1.23-2.82-1.48-1.81-.54-3.75-.38-5.5.29-1.07.41-2.33.85-2.75,1.98-.34.91-.66,1.83-1,2.74-1.07,2.96-2.15,5.92-3.22,8.88-.21.59-.63,1.3-.67,1.94-.09,1.33,1.17,2.34,2.36,2.44.8.07.8-1.18,0-1.25-.66-.06-1.07-.63-1.12-1.27.03.4.02.11.12-.11.32-.7.54-1.48.8-2.21l2.6-7.16,1.05-2.89c.1-.28.17-.6.31-.86.17-.32.13-.12.23-.2,1.54-1.29,4.17-1.67,6.07-1.21.99.24,1.82.69,2.64,1.26.43.3.68.3,1.2.3h3.18c1.26,0,2.52,0,3.78,0,.61,0,1.37.12,1.98,0,.53-.11,1-.62,1.47-.88,1.32-.73,2.85-1,4.34-.79,1.21.17,2.21.68,3.29,1.21.47.23.19-.11.44.32.36.63.53,1.47.78,2.15l2.86,7.88,1.06,2.91c.06.17.15.34.19.52-.09-.43.01-.06-.1.15-.26.49-.37.83-1.03.89-.8.07-.8,1.32,0,1.25h0Z"/>
  <g>
    <path class="cls-9" d="M130.68,106.64c-.11-.94-.62-1.85-1.27-2.63.34,1.14.06,2.68-1.11,3.47-.7.47-1.57.79-2.42,1.07-.48.15-2.2.7-2.37,2.09,0,.06-.04.11-.05.17-.17-.64-.02-1.32.42-1.87.57-.71,1.53-1.13,2.42-1.55.9-.43,1.91-.91,2.21-1.71.73-1.94-.67-3.39-.97-3.68.13,1.01-.29,2.06-1.13,2.81-.91.83-2.29,1.13-3.3,1.85-2.14,1.53-2.09,4.04-.49,5.82.52.58,1.23,1.12,1.9,1.55-.12-1.17.65-2.11,1.83-2.73.7-.37,1.47-.65,2.15-1.04,1.45-.83,2.35-2.17,2.17-3.61Z"/>
    <path class="cls-9" d="M118.72,114.6h12.12c0,1.34-1.09,2.42-2.42,2.42h-7.28c-1.34,0-2.42-1.09-2.42-2.42h0Z"/>
    <path class="cls-9" d="M120.46,117.58h8.66c0,1.34-1.09,2.42-2.42,2.42h-3.81c-1.34,0-2.42-1.09-2.42-2.42h0Z"/>
    <polygon class="cls-9" points="126.39 136.38 123.19 136.38 122.01 120.63 127.56 120.63 126.39 136.38"/>
  </g>
  <line class="cls-4" x1="124.79" y1="136.64" x2="124.79" y2="145.14"/>
  <g>
    <path class="cls-6" d="M127.06,194.14c1.94-2.35,5.69-5.55,12.91-9.16h-12.91v9.16Z"/>
    <path class="cls-6" d="M122.61,193.82v-8.85h-12.65c6.91,3.45,10.64,6.53,12.65,8.85Z"/>
    <path class="cls-6" d="M110.34,165.2h12.27v-10.27c-2.76,1.73-7.9,5.3-12.27,10.27Z"/>
    <path class="cls-6" d="M127.06,155.26v9.94h11.74c-4.11-4.67-8.89-8.1-11.74-9.94Z"/>
    <path class="cls-6" d="M141.02,167.94h-13.96v14.28h18.94c.16-.07.32-.13.48-.2-.02-.35-.04-.69-.08-1.04-.48-4.88-2.62-9.28-5.39-13.04Z"/>
    <path class="cls-6" d="M102.68,181.71c.43.17.84.34,1.25.52h18.68v-14.28h-14.49c-2.77,3.76-4.91,8.16-5.39,13.04-.02.24-.04.48-.05.72Z"/>
    <path class="cls-6" d="M98.39,180.04c.59-4.48,2.43-8.54,4.83-12.09h-20.6c-1.2,1.18-2.27,2.41-3.19,3.7,4.92,2.58,11.12,5.36,18.96,8.4Z"/>
    <path class="cls-6" d="M145.93,167.94c2.45,3.63,4.31,7.79,4.86,12.39,6.81-2.62,12.4-5.04,17.01-7.31-1.11-1.78-2.49-3.48-4.12-5.07h-17.75Z"/>
    <path class="cls-6" d="M143.89,165.2h16.63c-6.98-5.39-16.94-9.24-28.33-10.59,3.36,2.31,7.92,5.92,11.7,10.59Z"/>
    <path class="cls-6" d="M105.25,165.2c3.96-4.89,7.64-8.3,11.04-10.59-12.76.95-22.86,4.69-30.51,10.59h19.47Z"/>
  </g>
  <g>
    <path class="cls-4" d="M119.97,161.6s-24.33-6.21-26.41-27.09c0,0,9.59,14.61,17.66,16.39,0,0,1.46-.73-.63-3.55,0,0-7.44-2.4-7.09-7.05,0,0,6.05,3.97,9.24,4.49,0,0,7.09,2.82,7.92,10.59l-.28,6.21h-.42Z"/>
    <path class="cls-4" d="M129.61,161.6s24.33-6.21,26.41-27.09c0,0-9.59,14.61-17.66,16.39,0,0-1.46-.73.63-3.55,0,0,7.44-2.4,7.09-7.05,0,0-6.05,3.97-9.24,4.49,0,0-7.09,2.82-7.92,10.59l.28,6.21h.42Z"/>
  </g>
</svg>